<?xml version="1.0" encoding="UTF-8"?>
<svg width="12px" height="9px" viewBox="0 0 12 9" version="1.1" xmlns="http://www.w3.org/2000/svg" xmlns:xlink="http://www.w3.org/1999/xlink">
    <!-- Generator: Sketch 43.1 (39012) - http://www.bohemiancoding.com/sketch -->
    <title>ios-mail</title>
    <desc>Created with Sketch.</desc>
    <defs></defs>
    <g id="Page-1" stroke="none" stroke-width="1" fill="none" fill-rule="evenodd">
        <g id="ios-mail" fill-rule="nonzero" fill="#FFFFFF">
            <path d="M11.9019231,1.01826923 L8.79807692,4.17980769 C8.775,4.20288462 8.775,4.2375 8.79807692,4.26057692 L10.9701923,6.57403846 C11.1173077,6.72115385 11.1173077,6.95769231 10.9701923,7.10480769 C10.8980769,7.17692308 10.8,7.21442308 10.7048077,7.21442308 C10.6096154,7.21442308 10.5115385,7.17692308 10.4394231,7.10480769 L8.27596154,4.8 C8.25288462,4.77692308 8.21538462,4.77692308 8.19230769,4.8 L7.66442308,5.33653846 C7.22307692,5.78365385 6.6375,6.03173077 6.00865385,6.03461538 C5.37115385,6.0375 4.76538462,5.76923077 4.31826923,5.31634615 L3.81057692,4.8 C3.7875,4.77692308 3.75,4.77692308 3.72692308,4.8 L1.56346154,7.10480769 C1.49134615,7.17692308 1.39326923,7.21442308 1.29807692,7.21442308 C1.20288462,7.21442308 1.10480769,7.17692308 1.03269231,7.10480769 C0.885576923,6.95769231 0.885576923,6.72115385 1.03269231,6.57403846 L3.20480769,4.26057692 C3.225,4.2375 3.225,4.20288462 3.20480769,4.17980769 L0.0980769231,1.01826923 C0.0605769231,0.980769231 0,1.00673077 0,1.05865385 L0,7.38461538 C0,7.89230769 0.415384615,8.30769231 0.923076923,8.30769231 L11.0769231,8.30769231 C11.5846154,8.30769231 12,7.89230769 12,7.38461538 L12,1.05865385 C12,1.00673077 11.9365385,0.983653846 11.9019231,1.01826923 L11.9019231,1.01826923 Z" id="Shape"></path>
            <path d="M6,5.28173077 C6.42692308,5.28173077 6.82788462,5.11442308 7.12788462,4.80865385 L11.6538462,0.201923077 C11.4951923,0.075 11.2990385,0 11.0826923,0 L0.920192308,0 C0.703846154,0 0.504807692,0.075 0.349038462,0.201923077 L4.875,4.80865385 C5.17211538,5.11153846 5.57307692,5.28173077 6,5.28173077 L6,5.28173077 Z" id="Shape"></path>
        </g>
    </g>
</svg>